<?xml version="1.0" encoding="UTF-8"?>
<svg width="161px" height="17px" viewBox="0 0 161 17" version="1.1" xmlns="http://www.w3.org/2000/svg" xmlns:xlink="http://www.w3.org/1999/xlink">
    <title>mlogo/Onepass</title>
    <g id="업체-로고들" stroke="none" stroke-width="1" fill="none" fill-rule="evenodd">
        <g id="메인화면로고" transform="translate(-1180.000000, -116.000000)" fill="#001C8A">
            <path d="M1185.3005,116.573483 C1186.28385,116.573483 1187.24294,117.087503 1188.17779,118.115544 L1188.17779,118.115544 L1196.95269,130.292158 L1196.95269,116.573483 L1196.95269,116.573483 L1199.95864,116.573483 C1201.3037,116.573483 1201.51048,117.467912 1201.51003,118.115544 L1201.51003,118.115544 L1201.51003,132.573433 L1201.51003,132.573433 L1196.76756,132.573453 C1195.7956,132.572658 1195.06794,132.541259 1194.4576,131.703385 C1194.02527,131.10989 1190.97291,126.854947 1185.3005,118.938556 L1185.3005,118.938556 L1185.3005,132.573433 L1185.3005,132.573433 L1182.21548,132.573433 C1181.32678,132.573433 1181.00241,132.13822 1180.98756,131.321016 L1180.98756,131.321016 L1180.98658,130.08282 C1180.98657,130.035749 1180.98655,129.987337 1180.98654,129.937584 L1180.98654,124.038571 C1180.98655,123.924462 1180.98657,123.809013 1180.98658,123.692222 L1180.98756,116.573483 L1180.98756,116.573483 Z M1208.28272,116.573433 L1208.28272,123.322955 L1219.28284,123.322955 L1219.28284,116.573433 L1219.28284,116.573433 L1222.401,116.573433 C1223.23267,116.573433 1223.72995,117.052354 1223.89286,118.010196 L1223.89286,118.010196 L1223.89286,131.193924 C1223.89286,131.896999 1223.39557,132.356835 1222.401,132.573433 L1222.401,132.573433 L1219.28284,132.573433 L1219.28284,124.882433 L1208.28272,124.882433 L1208.28272,132.573433 L1208.28272,132.573433 L1204.93237,132.573433 C1204.35932,132.573433 1203.98298,132.225443 1203.80336,131.529464 C1203.78046,123.230034 1203.76526,118.707654 1203.75775,117.962326 C1203.75023,117.216998 1204.14178,116.754033 1204.93237,116.573433 L1204.93237,116.573433 L1208.28272,116.573433 Z M1257.84811,121.38514 C1260.0688,122.09951 1261.17914,123.606891 1261.17914,125.907281 L1261.17914,131.034458 L1261.17914,131.034458 C1261.26046,132.011486 1260.9415,132.5 1260.22228,132.5 L1257.7113,132.5 L1257.7113,132.5 L1257.7113,124.683777 C1257.15838,123.636062 1256.48945,123.112205 1255.7045,123.112205 L1251.63348,123.112205 L1251.63348,123.112205 L1251.63348,132.5 L1248.62445,132.5 L1247.92515,131.471903 L1247.92515,121.38514 L1257.84811,121.38514 Z M1320.31164,116.989721 C1322.81854,117.027082 1324.63627,117.515212 1325.76483,118.454112 L1324.73942,119.557391 C1322.88537,118.716689 1321.29312,118.411829 1319.96267,118.642809 C1317.96701,118.98928 1317.41756,120.05646 1317.44416,120.990732 C1317.47075,121.925003 1319.0761,122.864576 1320.73669,123.422716 C1322.39729,123.980856 1326.53808,124.825891 1326.50205,127.761993 C1326.46601,130.698095 1324.55186,131.389648 1322.28918,132.018975 C1320.0265,132.648302 1316.48312,132.438022 1315.14511,132.050656 C1314.25311,131.792412 1313.55167,131.456165 1313.04079,131.041915 L1314.21642,129.769377 C1314.92397,130.3966 1316.37838,130.757039 1318.57962,130.850694 C1321.88149,130.991175 1322.96345,128.988461 1322.9489,128.049014 C1322.93436,127.109568 1321.13765,125.951005 1318.88398,125.465189 C1315.75098,124.789819 1313.71605,122.909993 1313.68434,120.873853 C1313.65264,118.837713 1316.55128,116.93368 1320.31164,116.989721 Z M1334.59507,116.989721 C1337.10197,117.027082 1338.9197,117.515212 1340.04826,118.454112 L1339.02285,119.557391 C1337.1688,118.716689 1335.57655,118.411829 1334.24611,118.642809 C1332.25044,118.98928 1331.701,120.05646 1331.72759,120.990732 C1331.75418,121.925003 1333.35953,122.864576 1335.02012,123.422716 C1336.68072,123.980856 1340.82152,124.825891 1340.78548,127.761993 C1340.74944,130.698095 1338.83529,131.389648 1336.57261,132.018975 C1334.30993,132.648302 1330.76655,132.438022 1329.42854,132.050656 C1328.53654,131.792412 1327.8351,131.456165 1327.32423,131.041915 L1328.49985,129.769377 C1329.20741,130.3966 1330.66181,130.757039 1332.86305,130.850694 C1336.16492,130.991175 1337.24688,128.988461 1337.23233,128.049014 C1337.21779,127.109568 1335.42108,125.951005 1333.16741,125.465189 C1330.03441,124.789819 1327.99948,122.909993 1327.96778,120.873853 C1327.93607,118.837713 1330.83472,116.93368 1334.59507,116.989721 Z M1269.73678,120.408112 C1274.2842,120.408112 1276.03574,123.104146 1276.59593,124.169685 C1276.94449,124.832687 1276.93047,125.773425 1276.55388,126.991898 L1276.46763,127.25725 L1266.98621,127.325458 C1267.31625,129.315727 1268.30854,130.375149 1269.9631,130.503724 C1271.50735,130.623728 1273.00381,130.326308 1274.4525,129.611465 L1274.7622,129.451895 L1275.82375,130.569106 C1273.22864,132.27996 1270.55194,132.696482 1267.79365,131.818672 C1265.13752,130.973374 1263.57251,129.553217 1263.09862,127.558203 L1263.04878,127.325458 L1263.04878,125.051195 C1264.47584,121.955806 1266.70517,120.408112 1269.73678,120.408112 Z M1283.16435,117.475927 C1283.25272,117.47598 1283.34289,117.476044 1283.43486,117.476118 L1284.31134,117.477076 L1284.62516,117.477523 L1284.62516,117.477523 L1285.28528,117.478609 C1285.96706,117.479823 1286.7138,117.48142 1287.52552,117.4834 C1291.01727,118.002328 1292.76314,119.505131 1292.76314,121.99181 C1292.76314,125.721829 1288.85137,126.945521 1287.83107,126.97392 C1287.5649,126.981328 1287.13783,126.985838 1286.54986,126.987448 L1285.42092,126.987448 C1284.75001,126.986039 1283.95591,126.98241 1283.03862,126.976562 L1282.63795,126.97392 L1282.63795,132.206149 L1280.2575,132.206149 C1279.25706,132.206149 1279.16218,131.393876 1279.06483,130.315058 C1279.03169,129.947801 1279.01418,128.769296 1279.0123,126.779543 L1279.01233,125.995358 C1279.01402,124.16822 1279.02656,121.777715 1279.04996,118.823844 C1279.05603,117.940446 1279.42167,117.493631 1280.14689,117.4834 C1280.28726,117.48142 1280.49259,117.479823 1280.7629,117.478609 L1281.05486,117.477523 L1281.21708,117.477076 L1281.21708,117.477076 L1281.76872,117.476118 C1281.83543,117.476044 1281.90394,117.47598 1281.97425,117.475927 L1283.16435,117.475927 Z M1236.16232,116.5 C1241.49867,116.5 1245.82464,119.999442 1245.82464,124.316223 C1245.82464,128.633004 1241.49867,132.132447 1236.16232,132.132447 C1230.82597,132.132447 1226.5,128.633004 1226.5,124.316223 C1226.5,119.999442 1230.82597,116.5 1236.16232,116.5 Z M1305.22642,117.477028 L1313.04079,131.966379 C1312.56776,131.969084 1312.13767,131.970707 1311.75055,131.971248 L1311.20207,131.971248 C1310.8579,131.970707 1310.55668,131.969084 1310.29842,131.966379 C1309.69313,131.96004 1309.13563,131.420613 1308.62594,130.348098 L1308.52464,130.126487 L1307.75777,128.720662 L1299.31875,128.720662 C1299.0358,129.281999 1298.7247,129.867024 1298.38544,130.475735 C1297.87656,131.388802 1297.38129,131.949971 1296.64984,131.966379 C1296.45479,131.970755 1296.1813,131.97338 1295.82936,131.974255 L1295.24262,131.974255 C1294.89832,131.973555 1294.50381,131.971735 1294.0591,131.968795 L1293.71615,131.966379 L1301.29337,117.477028 L1305.22642,117.477028 Z M1236.16232,117.965542 C1232.91411,117.965542 1230.28091,120.808839 1230.28091,124.316223 C1230.28091,127.823608 1232.91411,130.666905 1236.16232,130.666905 C1239.41054,130.666905 1242.04373,127.823608 1242.04373,124.316223 C1242.04373,120.808839 1239.41054,117.965542 1236.16232,117.965542 Z M1303.37847,119.966882 L1300.07513,126.966599 L1306.76082,126.966599 L1303.37847,119.966882 Z M1269.98784,122.033305 C1268.17938,122.033305 1267.16515,123.237769 1266.94517,125.646698 L1273.03366,125.646698 C1272.81158,123.237769 1271.79631,122.033305 1269.98784,122.033305 Z M1286.43836,119.002038 L1282.73336,119.002038 L1282.73336,119.002038 L1282.73336,125.165835 C1283.99997,125.197048 1285.20385,125.210679 1286.34501,125.20673 C1287.29324,125.203448 1288.9813,124.065838 1288.9813,122.035861 C1288.9813,120.005883 1287.2546,119.001434 1286.43836,119.002038 Z" id="mlogo/Onepass"></path>
        </g>
    </g>
</svg>